<?xml version="1.0" encoding="utf-8"?>
<!-- Generator: Adobe Illustrator 27.5.0, SVG Export Plug-In . SVG Version: 6.00 Build 0)  -->
<svg version="1.1" xmlns="http://www.w3.org/2000/svg" xmlns:xlink="http://www.w3.org/1999/xlink" x="0px" y="0px"
	 viewBox="0 0 500 500" style="enable-background:new 0 0 500 500;" xml:space="preserve">
<g id="Background_Simple">
	<g>
		<path style="fill:#C6FF00;" d="M346.501,96.484c0,0-60.357-34.081-129.474-8.483S103.998,180.599,66.988,233.95
			c-37.01,53.351-31.169,115.162,12.43,150.448c43.599,35.286,82.943,1.245,150.745,11.017
			c67.802,9.772,84.329,22.618,146.726-5.986c62.397-28.604,87.642-117.344,54.663-191.967
			C398.571,122.84,346.501,96.484,346.501,96.484z"/>
		<path style="opacity:0.8;fill:#FFFFFF;" d="M346.501,96.484c0,0-60.357-34.081-129.474-8.483S103.998,180.599,66.988,233.95
			c-37.01,53.351-31.169,115.162,12.43,150.448c43.599,35.286,82.943,1.245,150.745,11.017
			c67.802,9.772,84.329,22.618,146.726-5.986c62.397-28.604,87.642-117.344,54.663-191.967
			C398.571,122.84,346.501,96.484,346.501,96.484z"/>
	</g>
</g>
<g id="Mountains">
	<g>
		<defs>
			<path id="SVGID_1_" d="M346.501,96.484c0,0-60.357-34.081-129.474-8.483S103.998,180.599,66.988,233.95
				c-37.01,53.351-31.169,115.162,12.43,150.448c43.599,35.286,82.943,1.245,150.745,11.017
				c67.802,9.772,84.329,22.618,146.726-5.986c62.397-28.604,87.642-117.344,54.663-191.967
				C398.571,122.84,346.501,96.484,346.501,96.484z"/>
		</defs>
		<clipPath id="SVGID_00000036954980555078980790000016108019716642227868_">
			<use xlink:href="#SVGID_1_"  style="overflow:visible;"/>
		</clipPath>
		<polygon style="clip-path:url(#SVGID_00000036954980555078980790000016108019716642227868_);fill:#C6FF00;" points="
			89.379,424.441 365.889,424.441 467.979,320.267 469.58,316.635 358.483,176.734 336.263,197.308 247.385,105.961 
			161.799,224.465 123.12,196.485 28.669,332.652 		"/>
		<polygon style="opacity:0.55;clip-path:url(#SVGID_00000036954980555078980790000016108019716642227868_);fill:#FFFFFF;" points="
			89.379,424.441 365.889,424.441 467.979,320.267 469.58,316.635 358.483,176.734 336.263,197.308 247.385,105.961 
			161.799,224.465 123.12,196.485 28.669,332.652 		"/>
		<path style="clip-path:url(#SVGID_00000036954980555078980790000016108019716642227868_);fill:#FFFFFF;" d="M374.942,208.829
			l-8.229-4.938l3.292,18.928l-33.741-25.511l22.22-20.574l19.128,24.087L374.942,208.829z M234.218,152.868l6.584,9.875
			l11.521-13.167l26.334,40.324l8.229-29.626l11.521,8.23l0.796-9.286l-51.819-53.258l-36.618,50.702l0.409,12.665L234.218,152.868z
			 M154.392,235.986l2.117-15.348l-33.389-24.154l-26.397,38.056l17.345-15.837l8.229,13.99l13.167-9.875L154.392,235.986z"/>
		<polygon style="opacity:0.1;clip-path:url(#SVGID_00000036954980555078980790000016108019716642227868_);" points="
			127.355,247.85 116.059,238.671 109.705,261.97 137.24,301.508 121.707,304.332 130.886,360.815 166.893,252.086 157.715,251.38 
			161.799,224.465 123.12,196.485 135.464,222.819 		"/>
		<polygon style="opacity:0.1;clip-path:url(#SVGID_00000036954980555078980790000016108019716642227868_);" points="
			281.126,221.996 291.001,329.802 272.907,358.068 361.266,424.441 365.889,424.441 467.979,320.267 469.58,316.635 
			358.483,176.734 376.588,216.235 358.483,207.183 351.076,209.652 336.263,197.308 247.385,105.961 307.46,241.747 		"/>
	</g>
</g>
<g id="Clouds">
	<path style="fill:#FFFFFF;" d="M387.209,145.362c-7.421-7.277-13.205-16.832-24.039-16.832c-8.002,0-10.302,8.766-17.071,11.111
		c-7.098,2.459-12.499-3.899-18.981-5.242c-10.885-2.256-10.562,5.38-15.295,11.907c-4.495,6.199-14.374-2.508-19.257,4.818
		c-4.236,6.354-10.655,10.538-14.153,9.858c-3.498-0.68-11.264-4.916-18.324-0.68c-7.06,4.236-9.884,7.766-16.945,7.766
		c-7.06,0-16.239,2.118-16.239,2.118h190.629c0,0-6.357-15.523-16.236-16.944C395.493,152.406,391.123,149.201,387.209,145.362z"/>
	<path style="fill:#FFFFFF;" d="M167.916,173.802c-3.773-3.7-6.714-8.559-12.223-8.559c-4.069,0-5.238,4.458-8.68,5.65
		c-3.609,1.25-6.355-1.982-9.651-2.665c-5.535-1.147-5.37,2.735-7.777,6.054c-2.285,3.152-7.309-1.275-9.792,2.45
		c-2.154,3.231-5.418,5.358-7.196,5.012c-1.779-0.346-5.728-2.5-9.318-0.346c-3.59,2.154-5.026,3.949-8.616,3.949
		c-3.59,0-8.257,1.077-8.257,1.077h96.727c0,0-3.029-7.893-8.052-8.616C172.128,177.384,169.906,175.754,167.916,173.802z"/>
	<path style="fill:#FFFFFF;" d="M266.035,94.548c-2.138-2.097-3.805-4.85-6.926-4.85c-2.306,0-2.969,2.526-4.919,3.201
		c-2.045,0.709-3.601-1.123-5.469-1.51c-3.136-0.65-3.043,1.55-4.407,3.431c-1.295,1.786-4.142-0.723-5.549,1.388
		c-1.221,1.831-3.07,3.036-4.078,2.84c-1.008-0.196-3.246-1.416-5.28-0.196s-2.848,2.238-4.882,2.238
		c-2.034,0-4.679,0.61-4.679,0.61h51.876c0,0,1.22-4.473-1.627-4.882C268.422,96.578,267.163,95.654,266.035,94.548z"/>
</g>
<g id="Wind">
	<g>
		<g>
			
				<path style="fill:none;stroke:#263238;stroke-width:0.75;stroke-linecap:round;stroke-linejoin:round;stroke-miterlimit:10;stroke-dasharray:2;" d="
				M105.249,173.822c0,0,6.855-2.742,19.193,0c12.339,2.742,23.991,11.653,42.499,14.395c18.508,2.742,30.161-3.427,32.217-13.709
				s-7.54-11.653-13.709-6.855c-6.169,4.798,0,13.024,0,13.024"/>
			
				<path style="fill:none;stroke:#263238;stroke-width:0.75;stroke-linecap:round;stroke-linejoin:round;stroke-miterlimit:10;stroke-dasharray:2;" d="
				M163.514,195.072c0,0,8.911,3.427,23.991,0c15.08-3.427,16.451-20.564,28.104-29.475c11.653-8.911,21.25,0.685,21.25,8.911
				c0,8.226-6.169,9.596-12.338,9.596"/>
		</g>
		<g>
			
				<path style="fill:none;stroke:#263238;stroke-width:0.75;stroke-linecap:round;stroke-linejoin:round;stroke-miterlimit:10;stroke-dasharray:2;" d="
				M332.867,279.27c0,0,8.911-4.113,20.564,6.855c11.653,10.967,25.362,23.306,43.87,21.935
				c18.508-1.371,26.048-17.822,41.814-21.249c15.766-3.427,23.306,6.169,23.306,12.338c0,6.169-10.282,14.395-15.766,8.226"/>
			
				<path style="fill:none;stroke:#263238;stroke-width:0.75;stroke-linecap:round;stroke-linejoin:round;stroke-miterlimit:10;stroke-dasharray:2;" d="
				M310.932,292.979c0,0,22.621-6.855,34.273,2.742c11.653,9.597,21.935,23.991,39.072,23.991"/>
		</g>
	</g>
</g>
<g id="Character">
	<g>
		<g>
			<g>
				<defs>
					<path id="XMLID_4_" d="M267.008,237.023c0,0,21.708,0.236,25.011,4.011c3.303,3.775,0.236,17.225,0.236,17.225
						s5.427,9.202,7.551,20.764c2.124,11.562-2.831,23.124-2.831,23.124s-2.124,10.618-4.247,15.337
						c-2.124,4.719-17.461,4.483-26.663,2.831c-9.202-1.652-5.427-17.697-4.719-29.494c0.708-11.798-2.124-44.123-2.124-47.191
						C259.222,240.562,261.345,239.383,267.008,237.023z"/>
				</defs>
				<use xlink:href="#XMLID_4_"  style="overflow:visible;fill:#FFFFFF;"/>
				<clipPath id="XMLID_00000178906163728014514920000009714746924932875917_">
					<use xlink:href="#XMLID_4_"  style="overflow:visible;"/>
				</clipPath>
				<path style="opacity:0.1;clip-path:url(#XMLID_00000178906163728014514920000009714746924932875917_);" d="M267.008,237.023
					c0,0,21.708,0.236,25.011,4.011c3.303,3.775,0.236,17.225,0.236,17.225s5.427,9.202,7.551,20.764
					c2.124,11.562-2.831,23.124-2.831,23.124s-2.124,10.618-4.247,15.337c-2.124,4.719-17.461,4.483-26.663,2.831
					c-9.202-1.652-5.427-17.697-4.719-29.494c0.708-11.798-2.124-44.123-2.124-47.191
					C259.222,240.562,261.345,239.383,267.008,237.023z"/>
				
					<use xlink:href="#XMLID_4_"  style="overflow:visible;fill:none;stroke:#263238;stroke-linecap:round;stroke-linejoin:round;stroke-miterlimit:10;"/>
			</g>
			<g>
				<path style="fill:#263238;stroke:#263238;stroke-linecap:round;stroke-linejoin:round;stroke-miterlimit:10;" d="
					M292.255,258.259c0,0-12.506,4.011-21.708,5.191l-0.236-4.247c0,0,19.112-1.652,22.416-4.483L292.255,258.259z"/>
				<path style="fill:#263238;stroke:#263238;stroke-linecap:round;stroke-linejoin:round;stroke-miterlimit:10;" d="
					M296.974,302.146c0,0-14.629,3.303-19.82,2.831l-0.472,4.011c0,0,14.393-0.236,19.584-2.596L296.974,302.146z"/>
			</g>
		</g>
		<path style="fill:#263238;stroke:#263238;stroke-linecap:round;stroke-linejoin:round;stroke-miterlimit:10;" d="M237.042,316.54
			c0,0-32.562-2.832-40.348,0c-7.786,2.831-8.966,12.505-8.966,19.112c0,6.607-4.955,36.101-5.427,37.281
			c-0.472,1.18-5.663,11.562-4.011,13.921c1.652,2.359,16.517,0,19.112-2.596c2.596-2.595,9.202-31.618,11.562-39.168
			c2.359-7.551,5.191-12.506,5.191-12.506s30.91,12.742,47.191,8.258c16.281-4.483,10.382-16.045,1.416-20.764
			C253.795,315.36,237.042,316.54,237.042,316.54z"/>
		<path style="fill:#C6FF00;stroke:#263238;stroke-linecap:round;stroke-linejoin:round;stroke-miterlimit:10;" d="M180.177,371.045
			c0,0-8.494,2.595-12.742,2.595c-4.247,0-10.618-1.416-11.562,4.483c-0.944,5.899,4.483,11.562,16.517,12.27
			c12.034,0.708,15.337,0.472,17.932-2.124c2.596-2.595,2.124-5.899-0.472-10.146S182.773,370.809,180.177,371.045z"/>
		<path style="fill:#FFFFFF;stroke:#263238;stroke-linecap:round;stroke-linejoin:round;stroke-miterlimit:10;" d="M187.256,379.303
			c0.933-0.415,1.73-0.909,2.417-1.456c-2.618-4.102-6.957-7.034-9.495-6.803c0,0-8.494,2.595-12.742,2.595
			c-0.211,0-0.431-0.006-0.652-0.012c-1.694,0.629-3.762,2.06-2.415,5.202C166.492,383.786,178.761,383.079,187.256,379.303z"/>
		<g>
			<g>
				<defs>
					<path id="XMLID_3_" d="M364.929,407.618c0,0-36.809-60.876-39.168-61.348c-2.36-0.472-12.27-0.944-12.27-0.944
						s-26.899-14.629-31.618-14.629c-4.719,0-27.371,13.685-29.73,14.629c-2.36,0.944-15.101,2.359-15.101,4.247
						c0,1.888-8.966,16.989-8.966,16.989l-18.404,6.607l-1.416,7.079l-5.663,31.618h167.999L364.929,407.618z"/>
				</defs>
				<use xlink:href="#XMLID_3_"  style="overflow:visible;fill:#FFFFFF;"/>
				<clipPath id="XMLID_00000125597123718832443210000018091792867992213901_">
					<use xlink:href="#XMLID_3_"  style="overflow:visible;"/>
				</clipPath>
				<path style="opacity:0.21;clip-path:url(#XMLID_00000125597123718832443210000018091792867992213901_);" d="M374.711,412.929
					l-9.134-7.672l-37.997-60.649l-17.172-2.557c0,0-27.036-13.883-29.959-13.518c-2.923,0.365-33.247,17.902-34.343,17.902
					c-1.096,0-8.403-0.365-10.23,2.192c-1.827,2.558-9.499,15.71-9.499,15.71l-18.998,6.211l-1.827,13.153l14.979,0.731
					l30.324,29.959h127.143L374.711,412.929z"/>
				
					<ellipse style="clip-path:url(#XMLID_00000125597123718832443210000018091792867992213901_);fill:#FFFFFF;" cx="304.51" cy="355.666" rx="8.488" ry="5.262"/>
				<path style="clip-path:url(#XMLID_00000125597123718832443210000018091792867992213901_);fill:#FFFFFF;" d="M329.973,349.724
					c0,2.906-3.8,5.262-8.488,5.262s-8.488-2.356-8.488-5.262c0-2.906,3.8-5.262,8.488-5.262S329.973,346.818,329.973,349.724z"/>
				<path style="clip-path:url(#XMLID_00000125597123718832443210000018091792867992213901_);fill:#FFFFFF;" d="M297.041,357.703
					c0,1.219-1.52,2.207-3.395,2.207c-1.875,0-3.395-0.988-3.395-2.207c0-1.219,1.52-2.207,3.395-2.207
					C295.521,355.496,297.041,356.484,297.041,357.703z"/>
				
					<ellipse style="clip-path:url(#XMLID_00000125597123718832443210000018091792867992213901_);fill:#FFFFFF;" cx="315.714" cy="356.005" rx="5.772" ry="3.904"/>
				<path style="clip-path:url(#XMLID_00000125597123718832443210000018091792867992213901_);fill:#FFFFFF;" d="M312.319,362.625
					c0,1.688-2.508,3.056-5.602,3.056c-3.094,0-5.602-1.368-5.602-3.056s2.508-3.056,5.602-3.056
					C309.811,359.57,312.319,360.938,312.319,362.625z"/>
				<path style="clip-path:url(#XMLID_00000125597123718832443210000018091792867992213901_);fill:#FFFFFF;" d="M289.233,357.703
					c0,1.031-1.368,1.867-3.055,1.867c-1.688,0-3.056-0.836-3.056-1.867c0-1.031,1.368-1.867,3.056-1.867
					C287.865,355.835,289.233,356.671,289.233,357.703z"/>
				<path style="clip-path:url(#XMLID_00000125597123718832443210000018091792867992213901_);fill:#FFFFFF;" d="M298.739,348.706
					c0,0.563-1.064,1.019-2.376,1.019s-2.377-0.456-2.377-1.019s1.064-1.018,2.377-1.018S298.739,348.143,298.739,348.706z"/>
				<path style="clip-path:url(#XMLID_00000125597123718832443210000018091792867992213901_);fill:#FFFFFF;" d="M315.714,349.385
					c0,1.5-1.672,2.716-3.734,2.716c-2.063,0-3.735-1.216-3.735-2.716c0-1.5,1.672-2.716,3.735-2.716
					C314.042,346.669,315.714,347.885,315.714,349.385z"/>
				<path style="clip-path:url(#XMLID_00000125597123718832443210000018091792867992213901_);fill:#FFFFFF;" d="M308.245,348.197
					c0,0.656-1.368,1.188-3.056,1.188c-1.687,0-3.056-0.532-3.056-1.188c0-0.656,1.368-1.188,3.056-1.188
					C306.877,347.008,308.245,347.54,308.245,348.197z"/>
				<path style="clip-path:url(#XMLID_00000125597123718832443210000018091792867992213901_);fill:#FFFFFF;" d="M319.109,366.869
					c0,1.781-2.508,3.225-5.602,3.225s-5.602-1.444-5.602-3.225s2.508-3.225,5.602-3.225S319.109,365.088,319.109,366.869z"/>
				
					<ellipse style="clip-path:url(#XMLID_00000125597123718832443210000018091792867992213901_);fill:#FFFFFF;" cx="322.504" cy="361.946" rx="7.809" ry="5.093"/>
				<path style="clip-path:url(#XMLID_00000125597123718832443210000018091792867992213901_);fill:#FFFFFF;" d="M334.726,356.514
					c0,2.813-3.496,5.093-7.809,5.093c-4.313,0-7.809-2.28-7.809-5.093c0-2.813,3.496-5.092,7.809-5.092
					C331.23,351.422,334.726,353.702,334.726,356.514z"/>
				<path style="clip-path:url(#XMLID_00000125597123718832443210000018091792867992213901_);fill:#FFFFFF;" d="M275.992,362.965
					c0,1.313-1.52,2.376-3.395,2.376s-3.395-1.064-3.395-2.376s1.52-2.376,3.395-2.376S275.992,361.652,275.992,362.965z"/>
				<path style="clip-path:url(#XMLID_00000125597123718832443210000018091792867992213901_);fill:#FFFFFF;" d="M280.066,371.792
					c0,2.625-4.256,4.753-9.506,4.753c-5.25,0-9.506-2.128-9.506-4.753c0-2.625,4.256-4.753,9.506-4.753
					C275.81,367.039,280.066,369.167,280.066,371.792z"/>
				<path style="clip-path:url(#XMLID_00000125597123718832443210000018091792867992213901_);fill:#FFFFFF;" d="M284.14,366.53
					c0,1.969-2.584,3.565-5.772,3.565c-3.188,0-5.772-1.596-5.772-3.565c0-1.969,2.584-3.565,5.772-3.565
					C281.556,362.965,284.14,364.561,284.14,366.53z"/>
				<path style="clip-path:url(#XMLID_00000125597123718832443210000018091792867992213901_);fill:#FFFFFF;" d="M259.187,357.872
					c0,1.688-2.508,3.056-5.602,3.056c-3.094,0-5.602-1.368-5.602-3.056c0-1.688,2.508-3.056,5.602-3.056
					C256.679,354.817,259.187,356.185,259.187,357.872z"/>
				<path style="clip-path:url(#XMLID_00000125597123718832443210000018091792867992213901_);fill:#FFFFFF;" d="M252.906,363.983
					c0,1.125-2.128,2.037-4.753,2.037c-2.625,0-4.753-0.912-4.753-2.037s2.128-2.037,4.753-2.037
					C250.778,361.946,252.906,362.858,252.906,363.983z"/>
				
					<ellipse style="clip-path:url(#XMLID_00000125597123718832443210000018091792867992213901_);fill:#FFFFFF;" cx="255.113" cy="365.172" rx="3.225" ry="1.867"/>
				<path style="clip-path:url(#XMLID_00000125597123718832443210000018091792867992213901_);fill:#FFFFFF;" d="M240.005,372.471
					c0,1.688-2.964,3.056-6.62,3.056c-3.656,0-6.62-1.368-6.62-3.056c0-1.688,2.964-3.056,6.62-3.056
					C237.041,369.415,240.005,370.784,240.005,372.471z"/>
				
					<ellipse style="clip-path:url(#XMLID_00000125597123718832443210000018091792867992213901_);fill:#FFFFFF;" cx="241.023" cy="382.826" rx="7.13" ry="4.923"/>
				<path style="clip-path:url(#XMLID_00000125597123718832443210000018091792867992213901_);fill:#FFFFFF;" d="M245.437,373.32
					c0,1.031-1.52,1.867-3.395,1.867s-3.395-0.836-3.395-1.867c0-1.031,1.52-1.867,3.395-1.867S245.437,372.289,245.437,373.32z"/>
				
					<ellipse style="clip-path:url(#XMLID_00000125597123718832443210000018091792867992213901_);fill:#FFFFFF;" cx="230.668" cy="377.903" rx="3.904" ry="2.037"/>
				<path style="clip-path:url(#XMLID_00000125597123718832443210000018091792867992213901_);fill:#FFFFFF;" d="M256.301,381.638
					c0,1.313-1.976,2.377-4.414,2.377c-2.438,0-4.413-1.064-4.413-2.377c0-1.313,1.976-2.376,4.413-2.376
					C254.325,379.261,256.301,380.325,256.301,381.638z"/>
				<polygon style="opacity:0.1;clip-path:url(#XMLID_00000125597123718832443210000018091792867992213901_);" points="
					325.761,346.27 327.163,375.465 282.683,363.815 283.742,397.705 259.913,380.76 257.795,392.41 238.203,396.646 
					219.109,377.416 210.667,397.176 170.423,403 136.526,413.753 255.918,413.753 254.988,411.742 370.592,411.865 
					364.929,407.618 				"/>
				
					<use xlink:href="#XMLID_3_"  style="overflow:visible;fill:none;stroke:#263238;stroke-linecap:round;stroke-linejoin:round;stroke-miterlimit:10;"/>
			</g>
			<path style="opacity:0.1;" d="M237.042,349.573c0,1.454-5.313,10.735-7.758,14.931l19.14-8.959l38.608-1.755l13.601-5.704h12.723
				l2.172-2.654c-1.212-0.066-2.037-0.106-2.037-0.106s-26.899-14.629-31.618-14.629c-4.719,0-27.371,13.685-29.73,14.629
				C249.784,346.27,237.042,347.685,237.042,349.573z"/>
			<polyline style="fill:none;stroke:#263238;stroke-linecap:round;stroke-linejoin:round;stroke-miterlimit:10;" points="
				228.076,366.562 244.121,366.562 267.716,388.27 267.244,403.371 251.671,411.393 			"/>
			<polyline style="fill:none;stroke:#263238;stroke-linecap:round;stroke-linejoin:round;stroke-miterlimit:10;" points="
				252.373,373.532 272.907,358.068 303.581,376 317.266,412.337 			"/>
			<polyline style="fill:none;stroke:#263238;stroke-linecap:round;stroke-linejoin:round;stroke-miterlimit:10;" points="
				303.581,376 297.918,394.876 275.267,401.011 267.716,395.82 			"/>
			
				<line style="fill:#FFFFFF;stroke:#263238;stroke-linecap:round;stroke-linejoin:round;stroke-miterlimit:10;" x1="275.267" y1="401.011" x2="276.21" y2="411.865"/>
			
				<line style="fill:#FFFFFF;stroke:#263238;stroke-linecap:round;stroke-linejoin:round;stroke-miterlimit:10;" x1="297.918" y1="394.876" x2="304.997" y2="411.393"/>
		</g>
		<g>
			<path style="fill:#263238;stroke:#263238;stroke-linecap:round;stroke-linejoin:round;stroke-miterlimit:10;" d="M279.75,315.832
				c0,0,0.472,12.034-1.888,17.225c-2.36,5.191-5.899,7.786-19.584,8.73c-13.685,0.944-32.09-5.663-32.09-5.663
				s-9.91,16.753-13.921,24.067c-4.011,7.315-11.326,15.573-13.449,18.404c-2.124,2.831-4.483,7.079-7.315,8.494
				c-2.831,1.416-9.438-7.079-10.618-10.146c-1.18-3.067-2.124-5.191-1.888-6.607c0.236-1.416,5.427-3.775,5.427-3.775
				s8.022-15.101,11.798-21.236c3.775-6.135,6.607-18.64,9.91-23.123c3.303-4.483,10.854-7.079,20.292-6.607
				c9.438,0.472,24.775,2.359,28.786,2.359C259.222,317.955,279.75,315.832,279.75,315.832z"/>
			<path style="fill:none;stroke:#FFFFFF;stroke-width:0.75;stroke-linecap:round;stroke-linejoin:round;stroke-miterlimit:10;" d="
				M187.99,360.342c3.861-6.869,10.373-18.695,12.243-23.556c2.711-7.048,5.692-13.011,5.692-13.011"/>
			<path style="fill:none;stroke:#FFFFFF;stroke-width:0.75;stroke-linecap:round;stroke-linejoin:round;stroke-miterlimit:10;" d="
				M185.054,365.518c0,0,0.451-0.784,1.2-2.103"/>
		</g>
		<g>
			<g>
				<defs>
					<path id="XMLID_11_" d="M243.02,258.81c0,0-4.562,5.82-5.82,10.539c-1.258,4.719-5.82,21.393-6.764,22.652
						c-0.944,1.258-3.933,5.506-6.764,7.551c-2.831,2.045-12.201,5.78-15.661,8.769c-3.461,2.989-1.799,4.445-3.215,6.804
						c-1.416,2.36,5.034,3.775,6.449,3.775c1.416,0,11.798-0.629,17.618-2.674c5.82-2.045,14.944-13.528,15.258-14.157
						c0.315-0.629,2.045-11.011,2.517-22.966C247.109,267.147,248.997,258.81,243.02,258.81z"/>
				</defs>
				<use xlink:href="#XMLID_11_"  style="overflow:visible;fill:#C6FF00;"/>
				<clipPath id="XMLID_00000127030551374649881680000018265299407076116101_">
					<use xlink:href="#XMLID_11_"  style="overflow:visible;"/>
				</clipPath>
				<path style="opacity:0.2;clip-path:url(#XMLID_00000127030551374649881680000018265299407076116101_);" d="M247.267,267.667
					c-0.095-0.823-0.152-1.311-0.152-1.311l-5.86,4.564c0,0-2.656,3.837-2.361,10.035c0.295,6.198,1.771,10.331,0.885,10.331
					s-3.837-3.542-3.837,0c0,3.542,2.066,6.198,2.656,8.264s-7.379-6.789-6.493-3.837c0.885,2.952,4.723,6.493,4.427,8.264
					c-0.295,1.771-5.018-6.198-6.789-4.132s-0.295,5.608-2.066,6.198c-1.48,0.493-13.873,9.637-15.156,12.804
					c3.273-0.181,11.424-0.896,16.34-2.623c5.82-2.045,14.944-13.528,15.258-14.157c0.315-0.629,2.045-11.011,2.517-22.966
					C246.81,274.726,247.17,270.842,247.267,267.667z"/>
				
					<use xlink:href="#XMLID_11_"  style="overflow:visible;fill:none;stroke:#263238;stroke-linecap:round;stroke-linejoin:round;stroke-miterlimit:10;"/>
			</g>
			<path style="fill:none;stroke:#263238;stroke-linecap:round;stroke-linejoin:round;stroke-miterlimit:10;" d="M241.163,301.548
				c0,0-8.403-9.487-8.674-7.318c-0.271,2.168,5.692,7.318,5.692,9.758c0,2.439-8.674-7.048-9.487-4.337
				c-0.813,2.711,1.897,3.795,1.897,3.795"/>
		</g>
		<path style="fill:#263238;stroke:#263238;stroke-linecap:round;stroke-linejoin:round;stroke-miterlimit:10;" d="M212.873,308.832
			c0,0-4.864-1.792-6.911,0c-2.048,1.792-9.727,8.191-6.655,9.983c3.072,1.792,8.581,1.843,10.495,0.256
			c1.915-1.587,3.584-2.304,3.584-2.304s-0.768,2.816,1.792,1.28c2.56-1.536,4.864-6.656,3.328-7.935
			C216.969,308.832,212.873,308.832,212.873,308.832z"/>
		<path style="fill:#C6FF00;stroke:#263238;stroke-linecap:round;stroke-linejoin:round;stroke-miterlimit:10;" d="M241.143,257.996
			c0,0-1.194,10.616-0.929,18.578c0.265,7.962,1.725,23.753,0.133,28.796c-1.592,5.043-1.46,9.554,1.592,11.545
			c3.052,1.991,16.986,4.246,25.744,3.052s13.934-2.654,14.464-5.971s0.929-32.113-0.663-42.597
			c-1.592-10.483-4.777-20.303-7.962-23.488c-3.185-3.185-6.502-1.99-14.597,1.194S243.399,254.811,241.143,257.996z"/>
		<path style="fill:#263238;stroke:#263238;stroke-linecap:round;stroke-linejoin:round;stroke-miterlimit:10;" d="M258.042,273.124
			c0,0-7.551,4.719-18.168,0c0,0-0.472,4.955,0.236,4.955c0.708,0,3.303,1.416,10.146,1.416c6.843,0,9.438-1.652,9.438-1.652
			L258.042,273.124z"/>
		<path style="fill:#263238;stroke:#263238;stroke-linecap:round;stroke-linejoin:round;stroke-miterlimit:10;" d="M257.334,255.899
			c0,0-3.067,7.55-2.36,14.393c0.708,6.843,3.067,12.505,9.91,12.505c6.843,0,12.506-14.865,12.742-23.124
			c0.236-8.258-2.596-11.798-9.202-11.798S257.334,255.899,257.334,255.899z"/>
		<g>
			<g>
				<defs>
					<path id="XMLID_9_" d="M239.816,256.404c0,0,3.981,7.962,5.043,9.554c1.062,1.592,1.194,0.929,2.256,0.398
						s20.436-17.251,22.161-17.914s5.175,0.929,5.441-0.796c0.265-1.725-7.166-12.474-9.289-14.199s-6.37,4.777-7.431,5.308
						c-1.062,0.531-1.46,0-3.318,0.398C252.821,239.551,243.266,251.494,239.816,256.404z"/>
				</defs>
				<use xlink:href="#XMLID_9_"  style="overflow:visible;fill:#C6FF00;"/>
				<clipPath id="XMLID_00000093864819071345602700000009218455297290533287_">
					<use xlink:href="#XMLID_9_"  style="overflow:visible;"/>
				</clipPath>
				<path style="opacity:0.2;clip-path:url(#XMLID_00000093864819071345602700000009218455297290533287_);" d="M265.427,233.447
					c-2.123-1.725-6.37,4.777-7.431,5.308c-1.062,0.531-1.46,0-3.317,0.398c-1.083,0.232-4.782,4.388-8.362,8.787l1.992,11.251
					c0,0,9.187-4.251,11.855-5.605c-1.38,1.133-4.276,4.575-7.079,7.924c6.178-5.158,15.048-12.628,16.19-13.067
					c1.725-0.663,5.175,0.929,5.441-0.796C274.982,245.921,267.551,235.172,265.427,233.447z"/>
				
					<use xlink:href="#XMLID_9_"  style="overflow:visible;fill:none;stroke:#263238;stroke-linecap:round;stroke-linejoin:round;stroke-miterlimit:10;"/>
			</g>
			<path style="fill:none;stroke:#263238;stroke-linecap:round;stroke-linejoin:round;stroke-miterlimit:10;" d="M254.413,248.973
				c0,0,12.771-8.954,8.434-8.954c-4.337,0-4.879,5.421-4.879,5.421"/>
		</g>
		<g>
			<defs>
				<path id="XMLID_6_" d="M243.93,255.608l4.379,3.583c0,0,4.512-6.768,6.104-10.218l-2.256-7.431L243.93,255.608z"/>
			</defs>
			<use xlink:href="#XMLID_6_"  style="overflow:visible;fill:#FFFFFF;"/>
			<clipPath id="XMLID_00000168819906981409075160000014880627584483178920_">
				<use xlink:href="#XMLID_6_"  style="overflow:visible;"/>
			</clipPath>
			<path style="clip-path:url(#XMLID_00000168819906981409075160000014880627584483178920_);fill:#C6FF00;" d="M243.93,255.608
				l4.379,3.583c0,0,4.512-6.768,6.104-10.218l-2.256-7.431L243.93,255.608z"/>
			<path style="opacity:0.5;clip-path:url(#XMLID_00000168819906981409075160000014880627584483178920_);fill:#FFFFFF;" d="
				M243.93,255.608l4.379,3.583c0,0,4.512-6.768,6.104-10.218l-2.256-7.431L243.93,255.608z"/>
			
				<use xlink:href="#XMLID_6_"  style="overflow:visible;fill:none;stroke:#263238;stroke-linecap:round;stroke-linejoin:round;stroke-miterlimit:10;"/>
		</g>
		<g>
			<g>
				<g>
					<g>
						<defs>
							<path id="XMLID_7_" d="M230.039,218.8c-2.274,2.78-3.492,6.623-3.492,10.003c0,6.635,2.919,16.587,4.91,20.701
								c1.99,4.114,7.033,9.82,9.422,9.952c2.389,0.133,8.36-9.024,9.554-11.279c1.194-2.256,1.46-3.848,1.46-3.848
								s3.45-1.592,3.052-7.962c-0.398-6.37-2.919-15.924-2.256-17.516c0.663-1.592,3.716-4.645,3.052-5.706s-1.99-0.265-3.45,0.531
								c-1.46,0.796-7.033-0.398-11.147,0c-2.701,0.262-5.504,1.097-7.887,2.4C232.022,216.749,230.946,217.689,230.039,218.8z"/>
						</defs>
						<use xlink:href="#XMLID_7_"  style="overflow:visible;fill:#FFFFFF;"/>
						<clipPath id="XMLID_00000094615197443613456900000000011948614309201574_">
							<use xlink:href="#XMLID_7_"  style="overflow:visible;"/>
						</clipPath>
						<path style="clip-path:url(#XMLID_00000094615197443613456900000000011948614309201574_);fill:#C6FF00;" d="M241.169,259.408
							c2.546-0.519,8.113-9.06,9.263-11.232c1.194-2.256,1.46-3.848,1.46-3.848s3.45-1.592,3.052-7.962
							c-0.398-6.37-2.92-15.924-2.256-17.516c0.663-1.592,3.715-4.645,3.052-5.706c-0.302-0.484-0.747-0.57-1.274-0.459
							c-2.297,1.739-6.89,5.433-9.85,9.264c-4.074,5.272-0.24,12.701-0.24,12.701s2.636,6.71,2.157,11.503
							C246.144,250.044,243.545,255.829,241.169,259.408z"/>
						<path style="opacity:0.5;clip-path:url(#XMLID_00000094615197443613456900000000011948614309201574_);fill:#FFFFFF;" d="
							M241.169,259.408c2.546-0.519,8.113-9.06,9.263-11.232c1.194-2.256,1.46-3.848,1.46-3.848s3.45-1.592,3.052-7.962
							c-0.398-6.37-2.92-15.924-2.256-17.516c0.663-1.592,3.715-4.645,3.052-5.706c-0.302-0.484-0.747-0.57-1.274-0.459
							c-2.297,1.739-6.89,5.433-9.85,9.264c-4.074,5.272-0.24,12.701-0.24,12.701s2.636,6.71,2.157,11.503
							C246.144,250.044,243.545,255.829,241.169,259.408z"/>
						
							<use xlink:href="#XMLID_7_"  style="overflow:visible;fill:none;stroke:#263238;stroke-linecap:round;stroke-linejoin:round;stroke-miterlimit:10;"/>
					</g>
					<g>
						<path style="fill:none;stroke:#263238;stroke-linecap:round;stroke-linejoin:round;stroke-miterlimit:10;" d="
							M233.845,239.816c0,0-0.133,2.123-1.194,3.45c-1.062,1.327-0.531,2.256,1.062,2.123c1.592-0.133,2.521-1.062,2.521-1.062"/>
						<g>
							<path style="fill:#263238;stroke:#263238;stroke-linecap:round;stroke-linejoin:round;stroke-miterlimit:10;" d="
								M233.579,234.243c0,0-10.488,1.641-11.417,3.233c-0.929,1.592,5.573,7.569,7.563,6.508c1.99-1.062,3.456-5.097,5.048-4.964
								c1.592,0.133,4.91,3.318,7.829,2.787c2.919-0.531,6.37-7.298,6.104-8.625C248.442,231.854,236.897,233.447,233.579,234.243z"
								/>
							<path style="fill:#C6FF00;stroke:#263238;stroke-linecap:round;stroke-linejoin:round;stroke-miterlimit:10;" d="
								M239.615,236.553c-5.295-2.471-7.06,0-10.943,3.177c-1.139,0.932-2.459,1.585-3.757,2.05
								c1.745,1.534,3.828,2.729,4.812,2.204c1.99-1.062,3.456-5.097,5.048-4.964c1.592,0.133,4.91,3.318,7.829,2.787
								c1.597-0.29,3.35-2.447,4.569-4.559C244.496,237.626,241.837,237.59,239.615,236.553z"/>
						</g>
						<path style="fill:none;stroke:#263238;stroke-linecap:round;stroke-linejoin:round;stroke-miterlimit:10;" d="
							M235.039,248.176c0,0,4.512,1.327,7.166-2.654"/>
					</g>
				</g>
				<path style="fill:#C6FF00;stroke:#263238;stroke-linecap:round;stroke-linejoin:round;stroke-miterlimit:10;" d="
					M248.707,231.589c0,0,1.327,6.37,0.929,7.829c-0.398,1.46,1.062,0.398,1.592-2.123s0.531-3.45,0.531-3.45
					S250.432,232.12,248.707,231.589z"/>
			</g>
			<g>
				<defs>
					<path id="XMLID_5_" d="M255.74,213.144c-0.663-1.062-1.99-0.265-3.45,0.531c-1.46,0.796-7.033-0.398-11.147,0
						c-2.701,0.262-5.504,1.097-7.887,2.4c-1.234,0.674-2.31,1.615-3.217,2.725c-2.274,2.78-3.492,6.623-3.492,10.003
						c0,1.398,0.135,2.947,0.359,4.554c3.771-2.728,14.162-7.933,28.058,3.7c-0.005-0.228-0.004-0.449-0.019-0.691
						c-0.398-6.37-2.919-15.924-2.256-17.516C253.351,217.257,256.404,214.205,255.74,213.144z"/>
				</defs>
				<use xlink:href="#XMLID_5_"  style="overflow:visible;fill:#263238;"/>
				<clipPath id="XMLID_00000178196218789885566470000001955368203199634579_">
					<use xlink:href="#XMLID_5_"  style="overflow:visible;"/>
				</clipPath>
				<g style="clip-path:url(#XMLID_00000178196218789885566470000001955368203199634579_);">
					<path style="fill:#C6FF00;" d="M239.12,215.756c3.741-0.68,5.082-0.207,5.549,0.137c0.236,0.173,0.363,0.387,0.399,0.671
						c0.31,2.484,2.751,2.484,5.577,2.484c0.765,0,1.403,0.332,1.937,0.805c-0.01-0.451,0.021-0.797,0.107-1.004
						c0.025-0.059,0.059-0.124,0.089-0.186c-0.599-0.406-1.304-0.674-2.133-0.674c-2.925,0-4.34-0.066-4.526-1.557
						c-0.072-0.577-0.349-1.046-0.823-1.394c-1.089-0.799-3.171-0.904-6.365-0.325c-1.349,0.246-1.719,0.111-2.174-0.115
						c-0.514,0.164-1.023,0.341-1.519,0.543c0.423,0.103,0.703,0.233,0.961,0.363C236.91,215.862,237.461,216.058,239.12,215.756z"
						/>
					<path style="fill:#C6FF00;" d="M253.653,232.194c-1.637-3.65-2.622-3.78-4.485-3.202l-0.436,0.131
						c-1.637,0.469-3.37,0.733-4.977-1.562c-1.645-2.349-4.394-2.492-7.547-0.389c-1.6,1.067-2.088,0.893-3.535,0.376
						c-0.38-0.135-0.81-0.289-1.323-0.443c-1.738-0.524-3.574,0.893-4.783,2.131c0.009,0.487,0.028,0.984,0.065,1.501
						c1.063-1.266,2.958-3.059,4.414-2.617c0.492,0.147,0.906,0.295,1.271,0.426c1.519,0.541,2.436,0.868,4.479-0.492
						c1.871-1.247,4.445-2.239,6.092,0.115c1.915,2.737,4.177,2.534,6.136,1.974c0.161-0.046,0.314-0.094,0.46-0.139
						c1.296-0.402,1.78-0.551,3.206,2.624c0.696,1.553,1.48,2.486,2.201,3.045c-0.044-0.541-0.098-1.095-0.166-1.668
						C254.366,233.554,254.002,232.971,253.653,232.194z"/>
					<path style="fill:#C6FF00;" d="M251.108,213.932c-0.377,0.025-0.811,0.027-1.287,0.012c0.893,1.515,2.621,2.331,4.318,2.655
						c0.234-0.323,0.468-0.649,0.686-0.967C253.404,215.443,251.972,214.896,251.108,213.932z"/>
					<path style="fill:#C6FF00;" d="M230.691,222.079c0.779,0,1.047,0.186,1.357,0.401c0.654,0.453,1.223,0.703,3.104,0.077
						c0.777-0.259,1.505-0.575,2.209-0.881c2.22-0.963,3.528-1.452,4.549-0.283c1.837,2.1,3.003,2.707,5.197,2.707
						c0.372,0,0.761-0.017,1.152-0.034c1.929-0.081,3.222-0.06,3.665,0.975c0.38,0.887,1.085,1.637,1.744,2.201
						c-0.113-0.642-0.223-1.266-0.33-1.873c-0.174-0.236-0.328-0.484-0.44-0.746c-0.766-1.784-2.848-1.695-4.685-1.616
						c-0.376,0.016-0.749,0.033-1.107,0.033c-1.762,0-2.645-0.339-4.4-2.345c-1.583-1.81-3.617-0.926-5.768,0.009
						c-0.684,0.296-1.39,0.603-2.123,0.848c-1.516,0.505-1.789,0.319-2.165,0.057c-0.358-0.249-0.85-0.59-1.961-0.59
						c-0.886,0-1.83,0.495-2.694,1.146c-0.304,0.684-0.553,1.389-0.763,2.103C228.294,223.186,229.65,222.079,230.691,222.079z"/>
				</g>
				
					<use xlink:href="#XMLID_5_"  style="overflow:visible;fill:none;stroke:#263238;stroke-linecap:round;stroke-linejoin:round;stroke-miterlimit:10;"/>
			</g>
		</g>
		<path style="fill:#263238;stroke:#263238;stroke-linecap:round;stroke-linejoin:round;stroke-miterlimit:10;" d="M229.963,307.573
			c0,0-4.247-0.315-7.236-1.258c-2.989-0.944-4.562-1.573-6.292-0.315c-1.73,1.258-5.977,8.022-6.292,9.438
			c-0.315,1.416,0.944,2.517,1.573,2.045s5.978-4.247,5.978-4.247s2.359,2.045,4.876,2.36c2.517,0.315,4.247-1.101,4.247-1.101
			l2.989,0.472L229.963,307.573z"/>
		<g>
			<g>
				<defs>
					<path id="XMLID_10_" d="M274.795,253.147c0,0-3.933-3.933-11.011,1.888c-7.079,5.82-5.034,17.303-4.876,22.022
						c0.157,4.719,1.888,16.674,1.888,19.191c0,2.517,0,4.09,0,4.09s-9.281,4.09-12.899,5.191
						c-3.618,1.101-10.697,1.258-12.27,1.573c-1.573,0.315-5.506-1.416-6.449,0.315c-0.944,1.73-2.831,8.337-0.315,9.438
						c2.517,1.101,15.101,1.258,23.91,1.258s22.337-2.202,25.483-4.09c3.146-1.888,2.517-12.742,2.517-20.135
						c0-7.393-0.157-23.753-1.416-30.517C278.098,256.607,276.053,254.405,274.795,253.147z"/>
				</defs>
				<use xlink:href="#XMLID_10_"  style="overflow:visible;fill:#C6FF00;"/>
				<clipPath id="XMLID_00000130639496806170565010000014630045847544371865_">
					<use xlink:href="#XMLID_10_"  style="overflow:visible;"/>
				</clipPath>
				<path style="opacity:0.2;clip-path:url(#XMLID_00000130639496806170565010000014630045847544371865_);" d="M279.357,263.371
					c-1.258-6.764-3.303-8.966-4.562-10.225c0,0-2.153-2.137-6.129-0.91l-0.256,0.385c0,0,6.198,0.885,5.018,3.542
					c-1.181,2.656-11.511,10.921-11.511,10.921s5.903-3.542,11.216-3.837c5.313-0.295,2.066,3.247-0.885,3.837
					c-2.952,0.59,8.264,1.476,3.837,2.656c-4.427,1.181-8.855-0.59-6.789,2.361c2.066,2.952,10.331,3.837,7.969,6.789
					c-2.361,2.952-10.035,5.903-8.264,10.331c1.771,4.427,9.74,3.542,9.74,6.198c0,2.656-2.066,3.837-5.903,4.427
					c-3.837,0.59,6.864,1.114,4.317,5.132c-2.547,4.018-5.498-1.885-10.221,1.066c-4.723,2.952-7.084,8.264-13.872,8.855
					c-6.789,0.59-12.101,0-17.414,1.771c-0.971,0.323-1.92,0.617-2.827,0.881c5.066,0.476,13.511,0.561,19.952,0.561
					c8.809,0,22.337-2.202,25.483-4.09c3.146-1.888,2.517-12.742,2.517-20.135C280.772,286.495,280.615,270.135,279.357,263.371z"/>
				
					<use xlink:href="#XMLID_10_"  style="overflow:visible;fill:none;stroke:#263238;stroke-linecap:round;stroke-linejoin:round;stroke-miterlimit:10;"/>
			</g>
			<path style="fill:none;stroke:#263238;stroke-linecap:round;stroke-linejoin:round;stroke-miterlimit:10;" d="M262.848,300.735
				c0,0,7.319,0.271,11.384,5.15"/>
			<path style="fill:none;stroke:#263238;stroke-linecap:round;stroke-linejoin:round;stroke-miterlimit:10;" d="M263.119,299.651
				c0,0,7.047-2.168,10.842-0.542c3.795,1.626,7.319-1.084,1.084-3.253c-6.234-2.168-11.229,0.398-12.74,2.44"/>
			<path style="fill:none;stroke:#263238;stroke-linecap:round;stroke-linejoin:round;stroke-miterlimit:10;" d="M275.045,260.347
				c0,0-2.168-2.44-8.945,2.982c-6.777,5.421-5.15,8.674-0.813,6.505c4.337-2.169,11.927-4.879,12.469-1.626
				c0.542,3.253-7.59,1.626-5.963,3.524c1.626,1.897,5.421,1.897,5.421,1.897"/>
		</g>
		<g>
			
				<rect x="185.919" y="319.056" style="fill:#FFFFFF;stroke:#263238;stroke-linecap:round;stroke-linejoin:round;stroke-miterlimit:10;" width="48.135" height="2.202"/>
			
				<rect x="185.919" y="319.056" style="fill:#FFFFFF;stroke:#263238;stroke-linecap:round;stroke-linejoin:round;stroke-miterlimit:10;" width="26.27" height="2.202"/>
			
				<polygon id="XMLID_8_" style="fill:#FFFFFF;stroke:#263238;stroke-linecap:round;stroke-linejoin:round;stroke-miterlimit:10;" points="
				185.919,319.056 175.222,295.304 204.008,295.304 212.188,319.056 			"/>
		</g>
		<g>
			<defs>
				<path id="XMLID_1_" d="M251.671,411.393c0,0-29.73-33.977-32.562-33.977c-2.831,0-69.37,12.741-71.73,16.045
					c-2.36,3.303-10.854,20.292-10.854,20.292h119.393L251.671,411.393z"/>
			</defs>
			<use xlink:href="#XMLID_1_"  style="overflow:visible;fill:#FFFFFF;"/>
			<clipPath id="XMLID_00000013156675745415249270000002690049568244005534_">
				<use xlink:href="#XMLID_1_"  style="overflow:visible;"/>
			</clipPath>
			<path style="opacity:0.21;clip-path:url(#XMLID_00000013156675745415249270000002690049568244005534_);" d="M221.263,375.298
				l32.882,34.708l6.211,5.48l-127.874-0.731l14.614-23.748l69.417-16.076C216.513,374.933,217.974,374.202,221.263,375.298z"/>
			<g style="clip-path:url(#XMLID_00000013156675745415249270000002690049568244005534_);">
				<path style="fill:#FFFFFF;" d="M218.955,383.489c0,1.228-2.015,2.223-4.501,2.223s-4.501-0.995-4.501-2.223
					c0-1.228,2.015-2.223,4.501-2.223S218.955,382.261,218.955,383.489z"/>
				<path style="fill:#FFFFFF;" d="M192.135,397.934c0,3.188-3.496,5.772-7.809,5.772c-4.313,0-7.809-2.584-7.809-5.772
					c0-3.188,3.496-5.772,7.809-5.772C188.639,392.162,192.135,394.746,192.135,397.934z"/>
				<path style="fill:#FFFFFF;" d="M216.918,389.446c0,3.188-3.496,5.772-7.809,5.772c-4.313,0-7.809-2.584-7.809-5.772
					c0-3.188,3.496-5.771,7.809-5.771C213.422,383.675,216.918,386.259,216.918,389.446z"/>
				<path style="fill:#FFFFFF;" d="M198.925,392.502c0,1.688-1.9,3.056-4.244,3.056s-4.244-1.368-4.244-3.056
					c0-1.688,1.9-3.056,4.244-3.056S198.925,390.814,198.925,392.502z"/>
				<ellipse style="fill:#FFFFFF;" cx="199.604" cy="386.391" rx="4.244" ry="3.056"/>
				<ellipse style="fill:#FFFFFF;" cx="193.318" cy="388.184" rx="4.244" ry="3.056"/>
				<path style="fill:#FFFFFF;" d="M159.372,399.292c0,1.688-1.9,3.056-4.244,3.056c-2.344,0-4.244-1.368-4.244-3.056
					c0-1.688,1.9-3.056,4.244-3.056C157.472,396.236,159.372,397.604,159.372,399.292z"/>
				<path style="fill:#FFFFFF;" d="M169.727,394.199c0,1.313-1.824,2.376-4.074,2.376c-2.25,0-4.074-1.064-4.074-2.376
					s1.824-2.376,4.074-2.376C167.903,391.823,169.727,392.887,169.727,394.199z"/>
			</g>
			<path style="opacity:0.1;clip-path:url(#XMLID_00000013156675745415249270000002690049568244005534_);" d="M238.45,396.592
				l-0.247,0.053l-19.093-19.23l-8.442,19.76L170.423,403l-33.898,10.752h119.393l-4.247-2.359
				C251.671,411.393,245.461,404.297,238.45,396.592z"/>
			
				<use xlink:href="#XMLID_1_"  style="overflow:visible;fill:none;stroke:#263238;stroke-linecap:round;stroke-linejoin:round;stroke-miterlimit:10;"/>
		</g>
	</g>
</g>
</svg>
